<?xml version="1.0" encoding="UTF-8" standalone="no"?>
<!-- Created with Inkscape (http://www.inkscape.org/) -->

<svg
   xmlns:dc="http://purl.org/dc/elements/1.1/"
   xmlns:cc="http://creativecommons.org/ns#"
   xmlns:rdf="http://www.w3.org/1999/02/22-rdf-syntax-ns#"
   xmlns:svg="http://www.w3.org/2000/svg"
   xmlns="http://www.w3.org/2000/svg"
   xmlns:xlink="http://www.w3.org/1999/xlink"
   xmlns:sodipodi="http://sodipodi.sourceforge.net/DTD/sodipodi-0.dtd"
   xmlns:inkscape="http://www.inkscape.org/namespaces/inkscape"
   width="500.09448"
   height="500"
   viewBox="0 0 500.09449 500.00001"
   id="svg4807"
   version="1.1"
   inkscape:version="0.91 r13725"
   sodipodi:docname="lyon-logo.svg">
  <defs
     id="defs4809">
    <radialGradient
       xlink:href="#linearGradient4740"
       id="radialGradient4766"
       gradientUnits="userSpaceOnUse"
       gradientTransform="matrix(1.980722,-0.04242048,0.03154968,1.4731349,-1731.3668,-837.74633)"
       cx="1703.3937"
       cy="1914.3906"
       fx="1703.3937"
       fy="1914.3906"
       r="92.277435" />
    <linearGradient
       id="linearGradient4740">
      <stop
         style="stop-color:#ffffff;stop-opacity:1;"
         offset="0"
         id="stop4742" />
      <stop
         style="stop-color:#ffffff;stop-opacity:0;"
         offset="1"
         id="stop4744" />
    </linearGradient>
    <radialGradient
       xlink:href="#linearGradient5590"
       id="radialGradient5596"
       cx="2676.343"
       cy="1896.4097"
       fx="2676.343"
       fy="1896.4097"
       r="88.308624"
       gradientTransform="matrix(1.8004832,0.466886,-0.36462123,1.4061129,-3967.0287,-3019.9514)"
       gradientUnits="userSpaceOnUse" />
    <linearGradient
       id="linearGradient5590">
      <stop
         style="stop-color:#ff9955;stop-opacity:1;"
         offset="0"
         id="stop5592" />
      <stop
         style="stop-color:#ff9955;stop-opacity:0;"
         offset="1"
         id="stop5594" />
    </linearGradient>
    <linearGradient
       xlink:href="#linearGradient4411"
       id="linearGradient5545"
       gradientUnits="userSpaceOnUse"
       gradientTransform="translate(-553.98595,-998.09104)"
       x1="723.73236"
       y1="1985.1975"
       x2="943.96509"
       y2="1604.7742" />
    <linearGradient
       id="linearGradient4411">
      <stop
         style="stop-color:#660080;stop-opacity:1;"
         offset="0"
         id="stop4413" />
      <stop
         style="stop-color:#b03c15;stop-opacity:1"
         offset="1"
         id="stop4415" />
    </linearGradient>
    <linearGradient
       xlink:href="#linearGradient4428"
       id="linearGradient5543"
       gradientUnits="userSpaceOnUse"
       gradientTransform="translate(-1044.011,-999.50532)"
       x1="1353.8976"
       y1="1924.3083"
       x2="1249.5887"
       y2="1659.3083" />
    <linearGradient
       id="linearGradient4428">
      <stop
         style="stop-color:#efa747;stop-opacity:1"
         offset="0"
         id="stop4430" />
      <stop
         style="stop-color:#ffed8c;stop-opacity:1"
         offset="1"
         id="stop4432" />
    </linearGradient>
  </defs>
  <sodipodi:namedview
     id="base"
     pagecolor="#ffffff"
     bordercolor="#666666"
     borderopacity="1.0"
     inkscape:pageopacity="0.0"
     inkscape:pageshadow="2"
     inkscape:zoom="1.4"
     inkscape:cx="288.43635"
     inkscape:cy="230.90906"
     inkscape:document-units="px"
     inkscape:current-layer="layer1"
     showgrid="false"
     units="px"
     inkscape:window-width="2560"
     inkscape:window-height="1376"
     inkscape:window-x="0"
     inkscape:window-y="27"
     inkscape:window-maximized="1" />
  <metadata
     id="metadata4812">
    <rdf:RDF>
      <cc:Work
         rdf:about="">
        <dc:format>image/svg+xml</dc:format>
        <dc:type
           rdf:resource="http://purl.org/dc/dcmitype/StillImage" />
        <dc:title></dc:title>
      </cc:Work>
    </rdf:RDF>
  </metadata>
  <g
     inkscape:label="Layer 1"
     inkscape:groupmode="layer"
     id="layer1"
     transform="translate(0,-552.36216)">
    <path
       style="fill:url(#linearGradient5543);fill-opacity:1;fill-rule:evenodd;stroke:none;stroke-width:1px;stroke-linecap:butt;stroke-linejoin:miter;stroke-opacity:1"
       d="m 396.07785,839.18047 c -23.8186,-12.9174 -26.4383,-31.0581 -32.2366,-55.5399 l 11.6939,3.9936 c -9.3787,-16.7952 -12.8922,-17.1495 -18.1588,-38.7428 6.4042,2.8287 7.9631,8.053 10.9683,14.0222 -0.5954,-12.0976 -3.1413,-24.1272 -7.8652,-34.8925 l -4.2394,-3.3621 c 0,0 4.0577,-23.1163 4.8882,-27.2765 l -5.2692,-8.2223 -9.9274,-1.5693 c -19.6828,-19.9045 -57.4766,-38.3234 -97.2124,-38.055 l -14.632,-0.7507 c -9.5862,1.2486 -19.0124,3.1372 -29.2301,1.8601 l 5.95,5.398 c -21.1529,6.1603 -31.3925,11.1 -46.8877,24.8154 7.2681,-4.1562 12.6378,-4.5749 17.5134,-0.9103 -20.5093,8.7666 -29.8089,20.1738 -39.32,33.5876 7.7268,-6.6235 15.182,-10.6415 22.1728,-7.9297 -20.4433,14.8632 -19.8418,29.7112 -23.0972,53.4456 l -20.3018,98.0694 15.7206,25.6952 46.1256,10.0254 112.094,52.9788 14.8549,-5.7086 6.0345,-27.6851 c 2.4975,-11.5226 13.1841,-16.3799 26.098,-13.0043 l 19.2706,4.2252 c 17.2844,-18.3596 26.8435,-39.9902 34.993,-64.4674 z"
       id="path5517"
       inkscape:connector-curvature="0"
       sodipodi:nodetypes="cccccccccccccccccccccccccccc"
       inkscape:export-filename="/home/nical/lyon-logo.png"
       inkscape:export-xdpi="162.5387"
       inkscape:export-ydpi="162.5387" />
    <path
       style="fill:url(#linearGradient5545);fill-opacity:1;fill-rule:evenodd;stroke:none;stroke-width:1px;stroke-linecap:butt;stroke-linejoin:miter;stroke-opacity:1"
       d="m 250.52965,580.36007 c -2.1414,0 -4.2826,0.943 -5.4433,2.8281 l -11.5215,18.6191 -5.4278,0.5293 -14.9238,-16.0097 c -3.0246,-3.2365 -9.1331,-2.0377 -10.6836,2.1308 l -7.6465,20.4532 -5.2734,1.5976 -17.7246,-12.7558 c -3.6008,-2.6012 -9.3586,-0.2039 -10.0703,4.1679 l -3.5156,21.5664 -4.8418,2.5977 -19.8848,-9.0664 c -4.0414,-1.847 -9.2262,1.6236 -9.0567,6.0547 l 0.7618,21.8847 -4.2032,3.4551 -21.312496,-5.0234 c -4.329396,-1.0082 -8.725596,3.3815 -7.708896,7.7109 l 5.0195,21.3164 -3.4473,4.1934 -21.8847,-0.7637 c -4.4142,-0.127 -7.8932,5.0126 -6.0547,9.0625 l 9.0664,19.8887 -2.5977,4.8418 -21.5605,3.5078 c -4.3803,0.7116 -6.754,6.4695 -4.1699,10.0703 l 12.7558,17.7148 -1.6016,5.2793 -20.4531,7.6465 c -4.1515,1.5505 -5.366,7.6544 -2.1211,10.6875 l 16,14.9199 -0.5293,5.4219 -18.6152,11.5235 c -3.7702,2.3299 -3.7702,8.5691 0,10.8906 l 18.6152,11.5234 0.5293,5.4219 -16,14.9238 c -3.2449,3.0247 -2.0304,9.1247 2.1211,10.6836 l 20.4531,7.6465 1.6016,5.2793 -12.7558,17.7187 c -2.5926,3.6093 -0.2065,9.3632 4.1738,10.0664 l 21.5566,3.5079 2.5977,4.8496 -9.0664,19.8808 c -1.847,4.0414 1.6405,9.2385 6.0547,9.0606 l 21.875,-0.7656 3.457,4.2011 -5.0195,21.3223 c -1.0167,4.3209 3.3795,8.7081 7.708896,7.6914 l 21.312496,-5.0195 4.2032,3.4492 -0.7618,21.8887 c -0.1695,4.4311 5.0153,7.8958 9.0567,6.0488 l 19.8848,-9.0625 4.8418,2.5976 3.5156,21.55473 c 0.7117,4.3888 6.4695,6.7599 10.0703,4.1758 l 17.7148,-12.76373 5.2793,1.6055 7.6465,20.44533 c 1.5505,4.1515 7.659,5.3745 10.6836,2.1211 l 14.9238,-16 5.4258,0.543 11.5235,18.6133 c 2.3214,3.7533 8.5607,3.7617 10.8906,0 l 11.5234,-18.6133 5.4219,-0.543 14.9199,16 c 3.0247,3.2534 9.1332,2.0304 10.6836,-2.1211 l 7.6465,-20.44533 5.2793,-1.6055 17.7187,12.76373 c 3.6008,2.5841 9.3548,0.2045 10.0664,-4.1758 l 3.5157,-21.55473 4.8418,-2.5976 19.8847,9.0625 c 4.0414,1.847 9.2177,-1.6092 9.0567,-6.0488 l -0.7617,-21.8887 4.1972,-3.4492 21.3125,5.0195 c 4.3294,1.0167 8.7238,-3.3705 7.7071,-7.6914 l -5.0215,-21.3223 3.4492,-4.2011 21.8848,0.7656 c 4.4142,0.1779 7.9043,-5.0192 6.0488,-9.0606 l -9.0606,-19.8808 2.5918,-4.8496 21.5625,-3.5079 c 4.3887,-0.703 6.769,-6.4571 4.168,-10.0664 l -12.7559,-17.7187 1.6016,-5.2793 20.4492,-7.6465 c 4.1599,-1.5589 5.3745,-7.6589 2.1211,-10.6836 l -15.9941,-14.9238 0.5293,-5.4219 18.6133,-11.5234 c 3.7703,-2.3215 3.7745,-8.5607 0,-10.8906 l -18.6094,-11.5235 -0.5293,-5.4219 15.9961,-14.9199 c 3.2534,-3.0331 2.0369,-9.137 -2.1231,-10.6875 l -20.4472,-7.6465 -1.6016,-5.2793 12.7539,-17.7148 c 2.6011,-3.6008 0.2123,-9.3502 -4.168,-10.0703 l -21.5625,-3.5078 -2.5918,-4.8418 9.0606,-19.8887 c 1.8555,-4.0499 -1.5924,-9.2319 -6.0488,-9.0625 l -21.8848,0.7637 -3.457,-4.1934 5.0293,-21.3164 c 1.0167,-4.3294 -3.3776,-8.7276 -7.7071,-7.7109 l -21.3105,5.0234 -4.2031,-3.4551 0.7675,-21.8847 c 0.1695,-4.4311 -5.0172,-7.8932 -9.0586,-6.0547 l -19.8847,9.0664 -4.8418,-2.5977 -3.5156,-21.5664 c -0.7117,-4.3718 -6.4637,-6.7606 -10.0645,-4.1679 l -17.7305,12.7558 -5.2695,-1.5976 -7.6465,-20.4532 c -1.5504,-4.1685 -7.6589,-5.3673 -10.6836,-2.1308 l -14.9199,16.0097 -5.4219,-0.5293 -11.5234,-18.6191 c -1.165,-1.8851 -3.3059,-2.8281 -5.4473,-2.8281 z m -0.3183,39.0273 c 7.1191,0.2082 12.7821,6.0399 12.7812,13.1621 -0.036,7.246 -5.9199,13.1016 -13.166,13.1016 -7.2461,0 -13.1303,-5.8556 -13.166,-13.1016 -9e-4,-7.4228 6.1312,-13.379 13.5508,-13.1621 z m 30.1718,21.6797 c 46.8033,8.7673 87.3844,37.6698 110.9707,79.0352 l -15.5293,35.0761 c -2.6815,6.0705 0.056,13.1714 6.1094,15.8614 l 29.8985,13.2793 c 0.9302,9.3532 1.0453,18.7694 0.3437,28.1425 -2.3121,32.5279 -16.6082,61.9623 -31.5527,84.8067 -4.4477,5.9131 -9.2949,11.5147 -14.5078,16.7656 l -27.8457,-5.9863 c -6.4857,-1.3894 -12.8646,2.736 -14.254,9.2343 l -6.6093,30.8399 c -43.005,19.4799 -92.3656,19.2432 -135.1817,-0.6484 l -6.6035,-30.8399 c -1.3895,-6.4899 -7.7705,-10.6242 -14.2519,-9.2305 l -27.2246,5.8457 c -18.8829,-19.6057 -32.3517,-46.9508 -40.052792,-70.5293 -5.413,-17.9722 -6.8869,-39.6839 -4.7461,-59.7089 l 28.361392,-12.6016 c 6.0578,-2.69 8.7954,-9.7908 6.1054,-15.8613 l -15.41847,-28.23491 c 22.9501,-43.2756 68.82067,-75.75469 112.05947,-85.20649 l 20.2734,21.2695 c 4.5836,4.7997 12.1753,4.9784 16.9707,0.3906 z m -65.5412,26.5901 c 10.5534,5.9789 5.3273,9.0727 1.9065,11.1833 l -34.1133,19.3829 c -1.8868,10.0873 -15.2847,12.9704 -18.834,20.5625 -5.5733,13.9749 -7.5388,23.812 -17.5195,34.58 -2.5663,-3.3693 -2.8809,-8.3297 -2.586,-12.7597 l -2.9668,18.8261 -6.7851,7.9082 c -13.3233,25.0651 -13.2349,34.9456 -14.5155,62.0915 l 4.1888,-4.6238 c -3.8819,20.2985 -4.8107,27.1826 -4.9644,49.3764 6.0391,10.5788 13.002,20.1265 20.6544,28.697 7.6954,-1.5681 14.8565,-3.3824 20.2754,-4.6348 6.5535,-1.5146 11.7318,-0.5414 16.3105,2.4219 4.4696,2.8927 6.9498,7.8762 8.5215,14.8281 1.5578,6.8904 3.1658,15.1494 5.334,23.6191 31.0093,14.814 77.5528,15.106 105.5215,6.6426 l -8.153,-12.4009 -9.7181,3.2329 -1.7279,-24.9943 -8.713,14.1181 6.156,-37.9433 -13.6025,21.6241 11.636,-41.5101 -7.6776,3.8931 -2.3835,-22.1172 -21.6075,13.2168 -8.2285,14.7949 -1.5918,-6.9375 -11.4297,11.5683 -6.7617,-11.7187 -3.9629,1.7129 -3.2929,-14.1699 c -21.7188,7.045 -24.588,5.3234 -45.959,0.7343 l -1.5821,8.3242 -13.1191,-6.3828 -3.4351,-11.7999 -0.8903,-3.0581 -1.3348,-4.5853 c 4.8531,-6.9332 11.5348,-13.6695 18.2307,-18.729 l 8.9787,-0.015 c 16.9206,14.3068 22.7999,16.201 43.1285,20.795 l -2.3203,9.6425 5.3574,-6.0683 6.9629,-2.3242 5.8457,-17.4688 c -4.1256,3.2853 -8.255,7.1879 -13.8183,6.9727 -22.5537,-2.5343 -26.7858,-4.7127 -44.4063,-16.5567 -4.2425,-13.259 -2.9455,-10.774 4.7012,-22.2304 l 12.8574,-3.9297 6.25,-6.0703 -12.7265,-8.1583 -14.6133,3.7149 -2.9004,6.5058 -2.0234,-6.8437 -8.5196,-5.1289 24.4258,-26.0723 c -3.8904,-4.447 -7.4299,-1.1034 -12.3027,0.8028 l 6.9101,-8.0371 3.7442,-9.4747 1.8086,1.334 0.875,5.6075 4.1074,2.6757 0.1797,2.8575 8.3554,-7.6407 7.8575,-13.3925 -8.2129,3.455 -12.4707,-4.705 1.2207,-3.5743 c 1.7725,-4.5334 10.8131,-4.6077 14.5371,-14.9394 l 26.4082,-12.3653 c 8.0166,-4.1158 10.4266,3.5167 6.1836,11.211 l -13.1055,21.3379 22.084,-21.8809 c 8.5665,-9.885 2.0885,-31.7889 -16.6389,-35.0097 z m 136.1545,19.5427 c -3.2412,-0.067 -7.179,0.4855 -11.8867,1.7363 35.2691,-0.5633 15.9833,40.0662 -2.5391,57.5547 2.7108,8.1296 6.6751,11.1062 13.4864,15.4864 l -2.3946,-10.7735 c 20.7201,-27.8521 27.6543,-62.6598 3.334,-64.0039 z m -24.6211,18.4551 c -7.4897,7.1855 -14.537,14.0869 -17.0976,23.6953 l 4.0195,0 3.5977,15.6582 2.75,-3.1738 7.1191,0.3203 -3.5996,-7.6094 c 4.3309,-16.5471 8.4807,-14.1966 3.2109,-28.8906 z m -87.0742,32.5176 -5.5352,13.3183 -7.6035,11.4258 c 10.7182,-6.2141 18.2156,-5.4537 30.1836,-5.3223 l 5.0996,6.1016 0.1426,-9.7422 9.7676,-4.1777 -9.0195,-13.2031 c -3.5598,-4.3115 -21.1851,-2.5003 -23.0352,1.5996 z m -146.156192,0.4238 c 7.118292,0.2082 12.780992,6.0388 12.781192,13.1602 -0.036,7.2461 -5.9199,13.1015 -13.165992,13.1015 -7.2462,0 -13.1303,-5.8554 -13.166,-13.1015 2e-4,-7.422 6.1319,-13.377 13.5508,-13.1602 z m 157.874992,0.057 c -2.9435,1.8505 -4.5411,5.6736 -3.9864,9.5391 0.3712,2.5335 1.6309,4.7854 3.4766,6.2148 -5.0612,0.18 -9.0937,-2.3398 -9.6328,-6.0195 -0.6222,-4.2599 3.6134,-8.5733 9.4629,-9.6367 0.2261,-0.038 0.4527,-0.07 0.6797,-0.098 z m 156.2539,0.5567 c 7.1184,0.2082 12.781,6.0387 12.7812,13.1601 -0.036,7.2461 -5.9199,13.1016 -13.166,13.1016 -7.2461,0 -13.1303,-5.8555 -13.166,-13.1016 2e-4,-7.422 6.1319,-13.377 13.5508,-13.1601 z m -131.4903,53.998 -7.3105,25.7227 0.4804,19.7851 9.0157,-17.8906 z m -132.0385,1.2128 4.894,1.1227 c 9.5988,11.9136 9.7535,8.7816 7.5801,22.7168 -5.7663,2.4849 -7.9484,2.2921 -13.1387,-0.3926 -3.3584,-8.2662 -1.2505,-15.1608 0.6646,-23.4469 z m 8.9233,129.7091 c 7.1184,0.2082 12.781,6.0388 12.7812,13.1602 -0.036,7.2461 -5.9198,13.1015 -13.166,13.1015 -7.2461,0 -13.1303,-5.8554 -13.166,-13.1015 2e-4,-7.422 6.132,-13.377 13.5508,-13.1602 z m 195.082,0.6133 c 7.1192,0.2082 12.7821,6.0399 12.7813,13.1621 -0.036,7.246 -5.9199,13.1016 -13.166,13.1016 -7.2462,0 -13.1303,-5.8556 -13.1661,-13.1016 -8e-4,-7.4228 6.1312,-13.379 13.5508,-13.1621 z"
       id="path5519"
       inkscape:connector-curvature="0"
       sodipodi:nodetypes="sccccccccccccccccccccccccccccccccccccccccccccccccccccccccccccccccccccccccccccccccccccccccccccccccccccccccccccccccccccccccccccccccsccsccccccccccccccccccccccccccccccccccccccsssccccccccccccccccccccccccccccccccccccccccccccccccccccccccccccccccccccccccccccccccccccsccccccccccccccccccccccccccccccccccc"
       inkscape:export-filename="/home/nical/lyon-logo.png"
       inkscape:export-xdpi="162.5387"
       inkscape:export-ydpi="162.5387" />
    <path
       style="fill:url(#radialGradient5596);fill-opacity:1;fill-rule:evenodd;stroke:none;stroke-width:1px;stroke-linecap:butt;stroke-linejoin:miter;stroke-opacity:1"
       d="m 134.18825,767.22087 a 0.50005,0.50005 0 0 0 -0.1855,0.049 l -0.059,0.07 c -0.1143,0.2149 -0.21,0.4084 -0.3223,0.6211 l -14.1387,60.2988 c -0.019,0.4133 -0.035,0.7504 -0.055,1.1719 l 1.0879,-1.2012 8.6602,-36.9355 -6.3691,33.3476 a 0.50005,0.50005 0 0 0 0.4277,0.5879 l 0.3828,-0.4219 c -0.045,0.2337 -0.077,0.4183 -0.1211,0.6485 l 13.4453,16.0957 -18.289,32.6074 c -1e-4,0.01 0,0.015 0,0.023 0.1534,0.2688 0.3141,0.5295 0.4687,0.7969 a 0.50005,0.50005 0 0 0 0.1641,-0.057 l 23.6679,-13.041 -3.9707,40.5234 a 0.50005,0.50005 0 0 0 0,0.1035 c 0.1088,0.1226 0.2152,0.249 0.3243,0.3711 0.1948,-0.04 0.3781,-0.083 0.5722,-0.123 a 0.50005,0.50005 0 0 0 0.051,-0.082 l 16.6016,-33.6211 3.2656,28.7364 a 0.50005,0.50005 0 0 0 0.1914,0.3398 0.50050599,0.50050599 0 0 0 0.027,0.025 c 3.3582,-0.7261 6.3529,-0.792 9.0918,-0.2617 l 6.9571,-0.3047 a 0.50005,0.50005 0 0 0 0.082,0.031 l 5.6855,6.1036 1.8926,9.0859 c 0.233,0.8152 0.4511,1.6601 0.6524,2.5391 a 0.50081188,0.50081188 0 0 0 0.2402,0.1 0.50005,0.50005 0 0 0 0.018,0 l 88.9062,20.8926 -83.582,2.3652 a 0.500064,0.500064 0 0 0 -0.2871,0.088 c 0.027,0.1063 0.049,0.21 0.076,0.3164 0.4847,0.2316 0.9843,0.4493 1.4765,0.6738 l 102.8281,6.3184 c 0.405,-0.1168 0.8193,-0.2294 1.2168,-0.3496 l -0.498,-0.7559 -16.9238,-8.4629 a 0.50005,0.50005 0 0 0 -0.047,-0.084 l -0.4024,0.1348 -0.035,-0.5059 -10.0723,-10.2402 -0.01,-0.021 a 0.50005,0.50005 0 0 0 -0.1446,-0.3984 l -0.1797,0.291 0.074,-0.457 -7.1602,-16.0899 0.047,-0.4219 -0.4082,0.6485 0.5566,-1.9864 3.9434,-35.4941 a 0.50072437,0.50072437 0 0 0 -0.02,-0.4004 l -0.5214,0.2637 -0.066,-0.625 -23.6387,-8.4492 -0.2852,0.1738 -0.3554,0.6387 a 0.50005,0.50005 0 0 0 0.1269,0.066 l 22.5664,8.0683 -30.1562,5.2852 -0.4102,0.7363 -0.1562,-0.6777 -0.2989,0.1562 -11.7363,4.3125 -0.8301,0.8399 -0.8847,-1.5332 -9.42,-8.6543 -0.4199,0.1816 -0.1152,-0.4961 a 0.50005,0.50005 0 0 0 -0.01,0 0.50005,0.50005 0 0 0 -0.051,0 0.50005,0.50005 0 0 0 -0.068,0.014 l 0.043,-0.127 -12.0547,-7.4472 9.0761,-5.6074 -0.086,-0.3692 -0.076,-0.123 c -0.6824,0.2212 -1.297,0.4111 -1.9433,0.6152 l -8.0274,4.959 -0.072,0.01 -11.3946,-0.8829 c -2.0641,0.047 -4.0808,-0.064 -6.2187,-0.332 l -12.3379,-0.3965 -4.7207,-2.9902 c -0.4282,-0.093 -0.7555,-0.1664 -1.1992,-0.2617 l -0.1172,0.6133 5.0254,3.1835 -6.3965,4.0352 -0.094,0.4922 -0.2734,-0.1328 a 0.50005,0.50005 0 0 0 -0.016,0.027 l -16.1407,32.6836 3.793,-38.7265 -0.4824,-0.2344 -0.094,-0.3203 a 0.50005,0.50005 0 0 0 -0.1621,0.057 l -22.9648,12.6543 17.6465,-31.4609 a 0.50005,0.50005 0 0 0 0.014,-0.027 l -0.1,-0.3457 c 1.3267,-1.8952 2.7985,-3.7698 4.3614,-5.6054 l 9.9824,-13.9434 3.4375,1.0508 a 0.50005,0.50005 0 0 0 0.1289,0.022 c 0.1069,-0.082 0.2134,-0.1712 0.3203,-0.252 l 0.1309,0 a 0.50005,0.50005 0 0 0 0.062,-0.1894 l 0.3925,-3.3731 7.543,3.5488 0.8496,0 c 0.3891,0.329 0.7434,0.6195 1.1211,0.9355 l 40.5664,19.5254 c 0.5048,0.115 0.918,0.2157 1.4414,0.334 l -0.09,0.3711 a 0.50005,0.50005 0 0 0 0.031,0.037 l 2.9551,3.3242 0.1406,-0.1582 0.7598,-0.2539 a 0.5000553,0.5000553 0 0 0 -0.1094,-0.2031 l -2.1836,-2.4551 8.127,0.7109 0.3691,-0.123 0.1739,-0.5195 a 0.50005,0.50005 0 0 0 -0.084,-0.1621 l -5.3301,-6.7891 10.668,-8.748 0.4179,-1.25 c -1.9853,1.5809 -3.9765,3.2955 -6.123,4.6347 l -5.7735,4.7344 -14.9785,-4.2227 c -5.6136,-1.033 -9.8655,-2.3233 -14.123,-4.3027 l -17.1504,-5.7773 0.09,-4.5391 c -0.06,-0.041 -0.1052,-0.07 -0.166,-0.1113 -0.6134,-1.9172 -1.0972,-3.4757 -1.4765,-4.8243 l -2.4219,-6.6777 7.1348,-8.6211 c 0.4802,-0.6849 0.9205,-1.292 1.4648,-2.1074 l 0.2676,-0.082 a 0.50005,0.50005 0 0 0 -0.041,-0.3926 l -7.0098,-12.5332 19.1426,9.2051 a 0.50005,0.50005 0 0 0 0.035,0.014 l 0.4629,-0.1406 0.1992,-0.1933 a 0.50005,0.50005 0 0 0 -0.027,-0.3399 l -6.2481,-13.4375 0,0 -0.4003,-0.2559 -0.3946,0.1 a 0.50068515,0.50068515 0 0 0 -0.1133,0.5781 l 5.6602,12.1719 -19.2617,-9.2637 -0.5039,0.1289 -0.2188,0.4883 a 0.50005,0.50005 0 0 0 0.027,0.057 l 6.748,12.0722 -9.1172,-6.1738 a 0.50005,0.50005 0 0 0 -0.2734,-0.086 l -0.066,0.1484 -0.041,-0.1387 a 0.50005,0.50005 0 0 0 -0.3516,0.2754 l -3.6797,7.7735 2.2539,-14.0567 -0.2051,-0.6972 -0.4043,-0.2422 a 0.50005,0.50005 0 0 0 -0.2519,0.2129 l -7.582,13.0605 0.1406,-17.9062 -0.4219,-0.254 0.1777,-0.1914 a 0.50005,0.50005 0 0 0 -0.7382,0.2969 l -4.8203,17.2402 -8.7989,-25.2578 a 0.50005,0.50005 0 0 0 -0.5039,-0.3339 l 0,0 z m -0.1172,3.748 4.5684,41.9082 -14.6172,10.7051 10.0488,-52.6133 z m 1.127,1.0644 7.8183,22.4493 -3.5859,16.3672 -4.2324,-38.8165 z m 13.0703,7.4278 -0.125,15.9687 0.4961,0.1133 c 0.3504,0.4349 0.6002,0.7209 0.9258,1.1172 l 4.4511,2.5586 1.7793,5.0293 c 1.081,1.57 1.5287,2.8663 1.5528,4.7676 l 1.6328,7.0078 -2.6875,1.7539 c -0.028,0.1811 -0.045,0.2952 -0.074,0.4824 -0.6472,0.2789 -1.2365,0.5129 -1.8028,0.7246 l -2.664,1.75 -4.7774,0.2344 -2.6797,-2.5059 c -0.3954,-0.1893 -0.7813,-0.3714 -1.2148,-0.5957 -0.1666,-0.41 -0.3108,-0.8131 -0.4512,-1.2168 l -2.6738,-3.5332 1.457,-6.6386 c 0.317,-3.9016 1.3471,-7.7968 2.3321,-12.0586 l 0.3203,0.074 4.2031,-15.0332 z m 7.9824,3.9375 -2.3418,14.6055 -4.6015,-2.6446 6.9433,-11.9609 z m 3.4297,5.1328 9.5137,6.4434 -14.0879,3.2207 4.5742,-9.6641 z m 9.2891,7.5195 -7.7012,9.3047 -5.8789,-6.1992 13.5801,-3.1055 z m -13.295,4.8614 4.6622,4.916 -2.7188,0.5781 -1.9434,-5.4941 z m 5.4219,5.7773 2.9082,8.0176 -5.7988,-7.4043 2.8906,-0.6133 z m -2.6797,2.5078 5.9043,7.5391 -4.3633,-0.9239 -1.541,-6.6152 z m -19.248,4.5352 2.9394,3.8847 -15.9941,5.6739 13.0547,-9.5586 z m 20.2793,3.1816 3.8535,4.1524 -5.9375,-2.795 2.084,-1.3574 z m 1.4844,0.127 4.08,0.8632 -0.068,3.4571 -4.0117,-4.3203 z m -18.1329,1.3925 3.3028,3.0899 -8.6856,19.0371 -13.0293,-15.5938 18.4121,-6.5332 z m 125.6914,0.4336 -0.016,0.053 0,0.02 0.023,0.9355 9.332,1.2266 0.035,-0.066 0.076,-0.5859 -0.027,-0.3438 -9.4219,-1.2383 z m -112.8164,0.4981 -0.2773,2.373 -2.2754,-0.6953 2.5527,-1.6777 z m -4.6328,2.414 -10.9043,15.2266 6.8575,-15.0293 4.0468,-0.1973 z m 21.9063,3.8965 15.6855,5.2832 a 0.50005,0.50005 0 0 0 0.025,0.01 l 22.8731,6.4473 -3.1329,5.3281 -35.4511,-17.0664 0,0 z m 39.4043,12.3223 4.4668,5.6914 -7.4317,-0.6504 2.9649,-5.041 z m -48.0469,25.1172 15.4609,0.4941 7.9961,0.6211 -28.8886,2.3125 5.4316,-3.4277 z m 29.8203,1.6094 0,0 10.8203,6.6816 -42.7461,-4.125 31.9219,-2.5566 z m -36.7324,3.0957 48.5488,4.6875 -45.2422,24.4277 -3.3066,-29.1152 z m 105.5527,4.6504 -3.9726,35.7558 -26.6114,-30.3926 30.584,-5.3632 z m -55.5742,0.4941 9.9375,9.1328 -38.3965,13.582 28.459,-22.7148 z m -4.6367,2.4219 -26.5606,21.1992 -13.8183,0.6035 40.3789,-21.8027 z m 28.4961,2.6738 26.9453,30.7715 -74.2285,-5.8672 47.2597,-24.8945 0.023,-0.01 z m -7.1133,2.6133 -21.6699,11.416 16.0019,-9.334 5.668,-2.082 z m -10.7031,3.8613 -31.1602,18.1738 -5.0117,-5.3769 36.1719,-12.7969 z m -30.4961,19.5 76.2246,20.2305 -74.041,-9.7578 -2.1836,-10.4727 z m 4.7519,0.2285 71.4375,5.6445 6.7207,15.0997 -78.1582,-20.7442 z m 6.9473,12.5117 71.7539,9.4532 0.049,0.1093 a 0.50005,0.50005 0 0 0 0.1,0.1465 l 9.1954,9.3477 -81.0977,-19.0567 z m 82.4922,20.4727 0.018,0.019 a 0.50005,0.50005 0 0 0 0.1328,0.098 l 15.3047,7.6523 -91.4414,-5.6172 75.9863,-2.1523 z"
       id="path5580"
       inkscape:connector-curvature="0" />
  </g>
</svg>
