<svg xmlns="http://www.w3.org/2000/svg" width="500" height="500" xmlns:xlink="http://www.w3.org/1999/xlink" viewBox="0 0 500.0 500.0">
  <defs>
    <radialGradient id="f" cx="2676.34" cy="1896.41" r="88.31" gradientUnits="userSpaceOnUse" gradientTransform="matrix(1.80048 .4669 -.36462 1.4061 -3967.03 -3019.95)" fy="1896.41" fx="2676.34" xlink:href="#a"/>
    <linearGradient id="a">
      <stop stop-color="#f95" offset="0"/>
      <stop stop-opacity="0" stop-color="#f95" offset="1"/>
    </linearGradient>
    <linearGradient id="e" x1="723.73" x2="943.97" y1="1985.2" y2="1604.77" gradientTransform="translate(-553.986 -998.09)" gradientUnits="userSpaceOnUse" xlink:href="#b"/>
    <linearGradient id="b">
      <stop stop-color="#660080" offset="0"/>
      <stop stop-color="#b03c15" offset="1"/>
    </linearGradient>
    <linearGradient id="d" x1="1353.9" x2="1249.59" y1="1924.31" y2="1659.31" gradientTransform="translate(-1044.01 -999.505)" gradientUnits="userSpaceOnUse" xlink:href="#c"/>
    <linearGradient id="c">
      <stop stop-color="#efa747" offset="0"/>
      <stop stop-color="#ffed8c" offset="1"/>
    </linearGradient>
  </defs>
  <path fill="url(#d)" d="M396.08 839.18c-23.82-12.92-26.44-31.06-32.24-55.54l11.7 4c-9.38-16.8-12.9-17.16-18.16-38.75 6.4 2.8 7.96 8.03 10.96 14-.6-12.1-3.14-24.1-7.86-34.9l-4.24-3.35s4.06-23.12 4.9-27.28l-5.28-8.22-9.93-1.57c-19.68-19.9-57.47-38.33-97.2-38.06l-14.64-.75c-9.6 1.23-19.04 3.12-29.25 1.85l5.95 5.4c-21.15 6.15-31.4 11.1-46.88 24.8 7.27-4.15 12.64-4.57 17.5-.9-20.5 8.76-29.8 20.17-39.3 33.6 7.72-6.64 15.17-10.66 22.17-7.94-20.47 14.87-19.87 29.72-23.1 53.45l-20.3 98.07 15.7 25.7 46.12 10.02 112.1 52.98 14.85-5.7 6.04-27.7c2.5-11.52 13.2-16.37 26.1-13l19.27 4.23c17.3-18.36 26.85-40 35-64.47z" transform="translate(0 -552.362)"/>
  <path fill="url(#e)" d="M250.53 580.36c-2.14 0-4.28.94-5.44 2.83l-11.55 18.6-5.42.53-14.93-16c-3-3.25-9.12-2.05-10.67 2.12l-7.65 20.45-5.27 1.6-17.7-12.75c-3.6-2.6-9.36-.2-10.1 4.17l-3.5 21.57-4.83 2.57-19.9-9.06c-4.03-1.84-9.2 1.63-9.04 6.06l.76 21.9-4.2 3.44-21.33-5c-4.33-1.02-8.72 3.37-7.7 7.7l5 21.32-3.43 4.2-21.9-.77c-4.4-.13-7.88 5-6.04 9.06l9.05 19.9-2.6 4.85-21.56 3.5c-4.4.72-6.77 6.48-4.2 10.08l12.77 17.7-1.6 5.3-20.45 7.64c-4.16 1.55-5.37 7.65-2.13 10.7l16 14.9-.54 5.43-18.6 11.5c-3.78 2.34-3.78 8.58 0 10.9l18.6 11.52.53 5.43-16 14.92c-3.25 3.03-2.04 9.13 2.12 10.68l20.45 7.65 1.6 5.28L46.4 880.5c-2.6 3.6-.2 9.36 4.2 10.07l21.54 3.5 2.6 4.85-9.06 19.88c-1.86 4.04 1.63 9.24 6.04 9.06l21.88-.76 3.45 4.2-5.02 21.32c-1 4.32 3.38 8.7 7.7 7.7l21.32-5.03 4.2 3.43-.75 21.9c-.17 4.42 5 7.9 9.05 6.04l19.9-9.06 4.83 2.6 3.5 21.56c.73 4.4 6.48 6.76 10.1 4.18l17.7-12.77 5.28 1.6 7.65 20.45c1.56 4.15 7.66 5.38 10.7 2.12l14.92-16 5.43.55 11.52 18.6c2.32 3.75 8.56 3.76 10.9 0l11.52-18.6 5.4-.56 14.93 16c3.02 3.26 9.13 2.03 10.68-2.12l7.66-20.44 5.28-1.62 17.72 12.77c3.6 2.58 9.35.2 10.06-4.18l3.52-21.55 4.84-2.6 19.87 9.06c4.05 1.85 9.22-1.6 9.06-6.05l-.75-21.9 4.2-3.43 21.3 5c4.34 1.03 8.73-3.36 7.72-7.68l-5.03-21.33 3.44-4.2 21.9.76c4.4.18 7.9-5.02 6.05-9.06l-9.06-19.88 2.58-4.86 21.56-3.5c4.4-.7 6.78-6.46 4.18-10.07l-12.75-17.72 1.6-5.28 20.45-7.65c4.16-1.55 5.38-7.65 2.13-10.68l-16-14.92.54-5.43 18.6-11.53c3.78-2.32 3.8-8.56 0-10.9l-18.6-11.5-.52-5.43 16-14.92c3.25-3.04 2.03-9.14-2.13-10.7l-20.45-7.64-1.6-5.27 12.75-17.7c2.6-3.6.23-9.35-4.15-10.07l-21.57-3.5-2.6-4.85 9.07-19.9c1.86-4.04-1.6-9.22-6.05-9.05l-21.88.76-3.46-4.2 5.04-21.3c1-4.33-3.4-8.73-7.72-7.7l-21.3 5-4.2-3.44.76-21.9c.17-4.42-5.02-7.88-9.06-6.04l-19.9 9.06-4.83-2.6-3.5-21.56c-.72-4.37-6.48-6.76-10.08-4.17l-17.73 12.76-5.27-1.6-7.64-20.43c-1.55-4.17-7.66-5.37-10.7-2.13l-14.9 16-5.43-.52-11.52-18.6c-1.17-1.9-3.3-2.84-5.45-2.84zm-.32 39.03c7.14.2 12.8 6.02 12.8 13.14-.03 7.25-5.92 13.1-13.16 13.1-7.25 0-13.13-5.85-13.17-13.1 0-7.42 6.13-13.38 13.55-13.16zm30.2 21.66c46.8 8.76 87.4 37.67 110.96 79.03l-15.53 35.07c-2.68 6.07.06 13.17 6.1 15.86l29.9 13.28c.94 9.36 1.06 18.78.36 28.15-2.33 32.53-16.6 61.96-31.57 84.8-4.44 5.92-9.3 11.52-14.5 16.77l-27.85-5.98c-6.5-1.4-12.86 2.73-14.25 9.23l-6.6 30.84c-43.02 19.5-92.38 19.25-135.2-.64l-6.6-30.84c-1.4-6.5-7.77-10.62-14.25-9.23l-27.23 5.84c-18.88-19.6-32.35-46.95-40.05-70.53-5.42-17.96-6.9-39.67-4.75-59.7l28.36-12.6c6.08-2.7 8.8-9.8 6.1-15.86l-15.4-28.24c22.95-43.26 68.83-75.74 112.06-85.2l20.28 21.28c4.58 4.8 12.17 4.97 16.97.4zm-65.55 26.6c10.56 5.97 5.33 9.06 1.9 11.17l-34.1 19.38c-1.9 10.1-15.3 12.98-18.84 20.58-5.56 13.96-7.53 23.8-17.5 34.57-2.57-3.37-2.9-8.33-2.6-12.76l-2.96 18.82-6.8 7.9c-13.3 25.08-13.22 34.96-14.5 62.1l4.2-4.62c-3.9 20.3-4.82 27.2-4.98 49.38 6.04 10.58 13 20.13 20.66 28.7 7.7-1.57 14.86-3.38 20.28-4.63 6.56-1.52 11.73-.54 16.3 2.42 4.48 2.9 6.96 7.87 8.53 14.83 1.57 6.9 3.18 15.15 5.35 23.62 31 14.8 77.55 15.1 105.52 6.64l-8.15-12.4-9.72 3.23-1.73-25-8.7 14.1 6.14-37.94-13.6 21.63 11.65-41.53-7.7 3.9-2.37-22.12-21.62 13.22-8.22 14.8-1.6-6.94-11.42 11.56-6.76-11.73-3.97 1.72-3.3-14.18c-21.7 7.04-24.58 5.32-45.95.73l-1.58 8.33-13.12-6.4-3.43-11.8-.9-3.05-1.33-4.6c4.84-6.92 11.53-13.66 18.22-18.72h8.98c16.92 14.3 22.8 16.2 43.13 20.8l-2.32 9.64 5.37-6.06 6.96-2.34 5.84-17.47c-4.12 3.28-8.25 7.18-13.8 6.96-22.57-2.53-26.8-4.7-44.42-16.55-4.24-13.25-2.95-10.77 4.7-22.22l12.86-3.93 6.26-6.07-12.73-8.16-14.6 3.7-2.9 6.52-2.04-6.84-8.52-5.13 24.43-26.07c-3.9-4.45-7.43-1.1-12.3.8l6.9-8.04 3.75-9.47 1.8 1.32.9 5.6 4.1 2.67.17 2.86 8.36-7.64 7.87-13.4-8.22 3.45-12.47-4.7 1.22-3.58c1.78-4.53 10.82-4.6 14.54-14.94l26.4-12.33c8-4.12 10.42 3.52 6.17 11.2l-13.1 21.35 22.1-21.88c6.03-17.74 2.3-29.97-16.65-35zM351 687.2c-3.24-.07-7.18.5-11.9 1.74 35.28-.57 16 40.06-2.53 57.55 2.7 8.1 6.68 11.1 13.5 15.47l-2.4-10.78c20.7-27.86 27.65-62.67 3.33-64zm-24.62 18.45c-7.5 7.2-14.54 14.1-17.1 23.7h4.02l3.6 15.66 2.74-3.16 7.12.32-3.6-7.6c4.34-16.55 8.5-14.2 3.22-28.9zm-87.08 32.52l-5.53 13.32-7.6 11.4c10.7-6.2 18.2-5.45 30.18-5.32l5.1 6.1.14-9.75 9.75-4.17-9.02-13.2c-3.56-4.32-21.2-2.5-23.03 1.6zm-146.16.43c7.12.2 12.8 6.04 12.8 13.16-.05 7.24-5.93 13.1-13.18 13.1S79.63 759 79.6 751.76c0-7.43 6.13-13.38 13.54-13.16zm157.88.05c-2.94 1.85-4.54 5.68-4 9.54.38 2.52 1.64 4.77 3.5 6.2-5.07.2-9.1-2.34-9.64-6-.62-4.28 3.6-8.6 9.46-9.66l.68-.1zm156.25.56c7.12.23 12.78 6.06 12.8 13.18-.05 7.25-5.93 13.1-13.18 13.1-7.27 0-13.15-5.85-13.2-13.1 0-7.42 6.14-13.38 13.56-13.16zm-131.5 54l-7.3 25.74.48 19.8 9.02-17.9zm-132.02 1.23l4.9 1.12c9.6 11.92 9.74 8.8 7.57 22.72-5.77 2.5-7.95 2.3-13.14-.4-3.36-8.26-1.25-15.15.67-23.44zm8.92 129.7c7.12.22 12.78 6.05 12.78 13.17-.04 7.24-5.92 13.1-13.17 13.1-7.24 0-13.13-5.86-13.16-13.1 0-7.43 6.13-13.4 13.55-13.17zm195.08.62c7.12.2 12.78 6.04 12.78 13.17-.03 7.25-5.92 13.1-13.16 13.1-7.25 0-13.13-5.85-13.17-13.1 0-7.42 6.13-13.37 13.55-13.16z" transform="translate(0 -552.362)"/>
  <path fill="url(#f)" d="M134.2 767.22a.5.5 0 0 0-.2.05l-.06.07-.32.62-14.14 60.3-.05 1.17 1.1-1.2 8.65-36.94-6.37 33.33a.5.5 0 0 0 .44.6l.4-.43c-.06.24-.1.43-.13.66l13.45 16.1-18.3 32.6v.02c.17.27.33.53.48.8a.5.5 0 0 0 .17-.06l23.65-13.04-3.97 40.53a.5.5 0 0 0 0 .1l.33.4.6-.13a.5.5 0 0 0 .04-.08l16.6-33.64 3.27 28.74a.5.5 0 0 0 .2.33.5.5 0 0 0 .03.03c3.35-.73 6.35-.8 9.1-.27l6.94-.3a.5.5 0 0 0 .1 0l5.67 6.1 1.9 9.1c.23.8.45 1.66.65 2.54a.5.5 0 0 0 .23.1.5.5 0 0 0 .02 0l88.9 20.9-83.58 2.36a.5.5 0 0 0-.3.1l.1.3c.47.24.97.46 1.46.68l102.83 6.32c.4-.1.82-.23 1.22-.35l-.5-.75-16.92-8.47a.5.5 0 0 0-.05-.08l-.4.14-.03-.53-10.07-10.24-.02-.02a.5.5 0 0 0-.14-.4l-.18.3.07-.46-7.16-16.1.05-.4-.4.64.55-2 3.94-35.5a.5.5 0 0 0 0-.4l-.52.27-.07-.62-23.63-8.45-.28.17-.37.64a.5.5 0 0 0 .13.07l22.57 8.07-30.16 5.28-.4.74-.17-.68-.3.15-11.74 4.3-.83.85-.9-1.54-9.4-8.65-.43.2-.1-.5a.5.5 0 0 0-.02 0 .5.5 0 0 0-.05 0 .5.5 0 0 0-.07 0l.04-.13-12.05-7.44 9.07-5.6-.08-.38-.08-.12-1.94.6-8.03 4.97-.1.02-11.4-.88c-2.05.04-4.07-.07-6.2-.33l-12.34-.4-4.72-2.97-1.2-.26-.12.6 5.03 3.2-6.4 4.03-.1.48-.27-.13a.5.5 0 0 0-.02.03l-16.14 32.68 3.8-38.73-.5-.23-.1-.32a.5.5 0 0 0-.15.06L120.3 873.2l17.64-31.48a.5.5 0 0 0 .02-.03l-.1-.35c1.3-1.9 2.78-3.77 4.35-5.6l10-13.95 3.43 1.06a.5.5 0 0 0 .13.02c.1-.08.2-.17.32-.25h.13a.5.5 0 0 0 .07-.2l.4-3.36 7.54 3.54h.86c.38.35.74.64 1.12.96l40.56 19.52 1.44.34-.1.38a.5.5 0 0 0 .04.04l2.96 3.32.14-.16.76-.25a.5.5 0 0 0-.1-.2l-2.2-2.46 8.13.7.38-.1.18-.54a.5.5 0 0 0-.1-.16l-5.32-6.8 10.67-8.74.43-1.25c-2 1.58-3.98 3.3-6.12 4.63l-5.77 4.74-14.98-4.22c-5.62-1.04-9.87-2.33-14.13-4.3l-17.15-5.78.1-4.54-.18-.1c-.6-1.93-1.1-3.5-1.48-4.84l-2.42-6.7 7.13-8.6 1.47-2.1.26-.1a.5.5 0 0 0-.03-.4l-7-12.52 19.13 9.2a.5.5 0 0 0 .04.02l.46-.15.2-.2a.5.5 0 0 0-.03-.34l-6.24-13.4-.4-.27-.4.1a.5.5 0 0 0-.1.58l5.64 12.18-19.26-9.26-.5.13-.23.5a.5.5 0 0 0 .02.05l6.75 12.07-9.12-6.17a.5.5 0 0 0-.27-.1l-.07.16-.03-.14a.5.5 0 0 0-.35.28l-3.68 7.77 2.25-14.06-.2-.7-.42-.23a.5.5 0 0 0-.25.2l-7.58 13.07.14-17.9-.43-.26.2-.2a.5.5 0 0 0-.75.3l-4.8 17.24-8.8-25.24a.5.5 0 0 0-.5-.34zm-.13 3.75l4.57 41.9-14.62 10.7 10.05-52.6zm1.13 1.06l7.82 22.45-3.6 16.37-4.22-38.82zm13.07 7.43l-.13 15.97.5.1c.35.45.6.73.93 1.13l4.45 2.56 1.78 5.03c1.08 1.57 1.52 2.86 1.55 4.77l1.63 7-2.7 1.76c0 .18-.03.3-.06.48-.65.28-1.24.5-1.8.72l-2.67 1.75-4.77.24-2.68-2.5c-.4-.2-.8-.38-1.22-.6-.17-.4-.3-.82-.45-1.22l-2.67-3.53 1.45-6.64c.34-3.9 1.37-7.8 2.36-12.06l.32.07 4.2-15.05zm7.98 3.94L153.9 798l-4.6-2.64 6.95-11.96zm3.43 5.13l9.5 6.44-14.07 3.23 4.6-9.67zm9.3 7.52l-7.7 9.3-5.9-6.2 13.6-3.1zm-13.3 4.86l4.66 4.94-2.72.58-1.95-5.5zm5.42 5.8l2.9 8-5.8-7.4 2.9-.6zm-2.68 2.5l5.9 7.55-4.36-.93-1.54-6.6zm-19.25 4.54l2.94 3.9-16 5.66 13.08-9.57zm20.28 3.18l3.85 4.17-5.94-2.8 2.1-1.37zm1.48.14l4.08.86-.05 3.46-4-4.32zm-18.13 1.4l3.3 3.08-8.68 19.04-13.03-15.6 18.4-6.53zm125.7.43l-.03.04v.02l.03.94 9.33 1.22.03-.06.08-.6-.03-.33-9.4-1.23zm-112.83.5l-.27 2.36-2.28-.7 2.55-1.67zm-4.63 2.4l-10.9 15.23L147 822l4.04-.2zm21.9 3.9l15.7 5.3a.5.5 0 0 0 .02 0l22.87 6.44-3.13 5.32-35.45-17.06zm39.4 12.32l4.48 5.7-7.43-.66 2.94-5.04zm-48.03 25.12l15.48.5 8 .6-28.9 2.32 5.44-3.42zm29.84 1.6l10.82 6.7-42.75-4.14 31.93-2.56zm-36.74 3.1l48.54 4.7-45.24 24.42-3.3-29.12zm105.55 4.65l-3.98 35.75-26.6-30.4 30.58-5.36zm-55.58.5l9.94 9.12-38.4 13.58 28.48-22.72zm-4.63 2.4l-26.57 21.2-13.8.6 40.37-21.8zm28.5 2.67l26.94 30.77-74.23-5.87 47.26-24.9h.04zm-7.12 2.6l-21.67 11.43 16-9.34 5.67-2.1zm-10.7 3.88l-31.17 18.17-5-5.37 36.16-12.8zm-30.5 19.5l76.22 20.23-74.04-9.76-2.18-10.46zm4.75.22l71.44 5.65 6.74 15.1-78.16-20.74zm6.95 12.52l71.75 9.44.05.1a.5.5 0 0 0 .1.15l9.2 9.34-81.1-19.05zm82.5 20.46v.02a.5.5 0 0 0 .14.1l15.3 7.65-91.44-5.62 76-2.14z" transform="translate(0 -552.362)"/>
</svg>
